<?xml version="1.0" encoding="utf-8"?>
<!-- Generator: Adobe Illustrator 24.3.0, SVG Export Plug-In . SVG Version: 6.00 Build 0)  -->
<svg version="1.1" id="Layer_1" xmlns="http://www.w3.org/2000/svg" xmlns:xlink="http://www.w3.org/1999/xlink" x="0px" y="0px"
	 viewBox="0 0 32 32" style="enable-background:new 0 0 32 32;" xml:space="preserve">
<style type="text/css">
	.st0{fill:#8F00FE;}
	.st1{fill:#000001;}
</style>
<g>
	<path class="st0" d="M16,27.2c-6.2,0-11.2-5-11.2-11.2c0-6.2,5-11.2,11.2-11.2c6,0,11.2,4.7,11.2,11.2C27.2,22.2,22.2,27.2,16,27.2
		z M26.2,16c0-5.7-4.5-10.1-10-10.3c-5.9-0.1-10.4,4.6-10.5,10c-0.1,5.9,4.6,10.4,10,10.5C21.6,26.4,26.3,21.6,26.2,16z"/>
	<path class="st1" d="M26.2,16c0,5.6-4.6,10.4-10.5,10.2c-5.4-0.1-10.1-4.6-10-10.5c0.1-5.5,4.6-10.1,10.5-10
		C21.7,5.9,26.2,10.3,26.2,16z M25.5,16c0-5.2-4.2-9.5-9.4-9.5c-5.2,0-9.5,4.2-9.5,9.4c0,5.2,4.2,9.5,9.4,9.5
		C21.2,25.5,25.5,21.2,25.5,16z"/>
	<path class="st0" d="M25.5,16c0,5.2-4.2,9.5-9.5,9.5c-5.2,0-9.5-4.3-9.4-9.5c0-5.2,4.3-9.4,9.5-9.4C21.2,6.5,25.5,10.8,25.5,16z
		 M9.8,21.3c0.4,0.5,0.8,0.9,1.3,1.2c1.4,1.1,3,1.6,4.8,1.6c0.7,0,1.3-0.1,1.9-0.2c1.9-0.4,3.4-1.4,4.6-3c1.1-1.4,1.7-3.1,1.7-4.9
		c0-0.6,0-1.1-0.2-1.7c-0.2-1-0.6-1.9-1.1-2.8c0-0.1-0.1-0.1-0.1,0c-0.2,0.1-0.3,0.2-0.5,0.4c-0.1,0-0.1,0.1,0,0.2
		c0.9,1.4,1.2,2.9,1.1,4.5c0,0.4-0.1,0.9-0.2,1.3c-0.6,1.9-1.7,3.4-3.4,4.4c-1,0.6-2,0.9-3.1,1c-0.4,0-0.8,0-1.3,0
		c-0.4,0-0.9-0.1-1.3-0.2c-1.4-0.4-2.5-1.1-3.5-2.2c0,0-0.1,0-0.1,0C10.2,21,10,21.2,9.8,21.3z M17.7,14.6c1.2,0,2.2-1,2.2-2.2
		c0-1.2-0.9-2.2-2.2-2.2c-1.2,0-2.2,1-2.2,2.2C15.5,13.6,16.6,14.6,17.7,14.6z M12,19.3c1.2,0,2.2-1,2.2-2.2c0-1.2-0.9-2.2-2.2-2.2
		c-1.2,0-2.2,1-2.2,2.2C9.8,18.4,10.9,19.3,12,19.3z"/>
	<path class="st1" d="M9.8,21.3c0.2-0.1,0.4-0.3,0.6-0.4c0,0,0.1,0,0.1,0c1,1.1,2.1,1.8,3.5,2.2c0.4,0.1,0.9,0.2,1.3,0.2
		c0.4,0,0.8,0,1.3,0c1.1-0.1,2.1-0.4,3.1-1c1.7-1,2.8-2.5,3.4-4.4c0.1-0.4,0.2-0.9,0.2-1.3c0.1-1.6-0.2-3.1-1.1-4.5
		c0-0.1,0-0.1,0-0.2c0.2-0.1,0.3-0.2,0.5-0.4c0,0,0.1,0,0.1,0c0.5,0.9,0.9,1.8,1.1,2.8c0.1,0.5,0.2,1.1,0.2,1.7
		c0,1.8-0.6,3.4-1.7,4.9c-1.2,1.5-2.7,2.5-4.6,3c-0.6,0.2-1.3,0.2-1.9,0.2c-1.8,0-3.4-0.6-4.8-1.6C10.6,22.2,10.2,21.8,9.8,21.3z"/>
	<path class="st1" d="M17.7,14.6c-1.2,0-2.2-0.9-2.2-2.2c0-1.2,1-2.2,2.2-2.2c1.3,0,2.2,1,2.2,2.2C19.9,13.6,18.9,14.6,17.7,14.6z
		 M17.7,13.8c0.8,0,1.4-0.6,1.4-1.4c0-0.8-0.6-1.4-1.4-1.4c-0.8,0-1.4,0.6-1.4,1.4C16.3,13.1,16.9,13.8,17.7,13.8z"/>
	<path class="st1" d="M12,19.3c-1.2,0-2.2-0.9-2.2-2.2c0-1.2,1-2.2,2.2-2.2c1.3,0,2.2,1,2.2,2.2C14.3,18.3,13.2,19.3,12,19.3z
		 M12,18.5c0.8,0,1.4-0.6,1.4-1.4c0-0.8-0.6-1.4-1.4-1.4c-0.8,0-1.4,0.6-1.4,1.4C10.6,17.9,11.2,18.5,12,18.5z"/>
	<path class="st0" d="M17.7,13.8c-0.8,0-1.4-0.6-1.4-1.4c0-0.8,0.7-1.4,1.4-1.4c0.8,0,1.4,0.7,1.4,1.4
		C19.1,13.1,18.5,13.8,17.7,13.8z"/>
	<path class="st0" d="M12,18.5c-0.8,0-1.4-0.6-1.4-1.4c0-0.8,0.7-1.4,1.4-1.4c0.8,0,1.4,0.7,1.4,1.4C13.5,17.9,12.8,18.5,12,18.5z"
		/>
</g>
</svg>
